<mxfile host="app.diagrams.net" agent="Mozilla/5.0 (Windows NT 10.0; Win64; x64) AppleWebKit/537.36 (KHTML, like Gecko) Chrome/131.0.0.0 Safari/537.36" version="25.0.3">
  <diagram name="Page-1" id="25TgqNSh_QcLrl_1FV53">
    <mxGraphModel dx="1050" dy="557" grid="1" gridSize="10" guides="1" tooltips="1" connect="1" arrows="1" fold="1" page="1" pageScale="1" pageWidth="850" pageHeight="1100" math="0" shadow="0">
      <root>
        <mxCell id="0" />
        <mxCell id="1" parent="0" />
        <mxCell id="-7PfaRDhcwgCqptokeeb-1" value="GPT API" style="whiteSpace=wrap;html=1;aspect=fixed;" vertex="1" parent="1">
          <mxGeometry x="80" y="40" width="80" height="80" as="geometry" />
        </mxCell>
        <mxCell id="-7PfaRDhcwgCqptokeeb-12" style="edgeStyle=orthogonalEdgeStyle;rounded=0;orthogonalLoop=1;jettySize=auto;html=1;exitX=0;exitY=0.5;exitDx=0;exitDy=0;entryX=1;entryY=0.5;entryDx=0;entryDy=0;" edge="1" parent="1" source="-7PfaRDhcwgCqptokeeb-2" target="-7PfaRDhcwgCqptokeeb-1">
          <mxGeometry relative="1" as="geometry" />
        </mxCell>
        <mxCell id="-7PfaRDhcwgCqptokeeb-2" value="Chat GPT" style="whiteSpace=wrap;html=1;aspect=fixed;" vertex="1" parent="1">
          <mxGeometry x="190" y="40" width="80" height="80" as="geometry" />
        </mxCell>
        <mxCell id="-7PfaRDhcwgCqptokeeb-11" style="edgeStyle=orthogonalEdgeStyle;rounded=0;orthogonalLoop=1;jettySize=auto;html=1;entryX=1;entryY=0.5;entryDx=0;entryDy=0;" edge="1" parent="1" source="-7PfaRDhcwgCqptokeeb-3" target="-7PfaRDhcwgCqptokeeb-2">
          <mxGeometry relative="1" as="geometry" />
        </mxCell>
        <mxCell id="-7PfaRDhcwgCqptokeeb-3" value="Actor" style="shape=umlActor;verticalLabelPosition=bottom;verticalAlign=top;html=1;outlineConnect=0;" vertex="1" parent="1">
          <mxGeometry x="320" y="50" width="30" height="60" as="geometry" />
        </mxCell>
        <mxCell id="-7PfaRDhcwgCqptokeeb-4" value="GPT API" style="whiteSpace=wrap;html=1;aspect=fixed;" vertex="1" parent="1">
          <mxGeometry x="80" y="170" width="80" height="80" as="geometry" />
        </mxCell>
        <mxCell id="-7PfaRDhcwgCqptokeeb-10" style="edgeStyle=orthogonalEdgeStyle;rounded=0;orthogonalLoop=1;jettySize=auto;html=1;exitX=0;exitY=0.5;exitDx=0;exitDy=0;entryX=1;entryY=0.5;entryDx=0;entryDy=0;" edge="1" parent="1" source="-7PfaRDhcwgCqptokeeb-7" target="-7PfaRDhcwgCqptokeeb-4">
          <mxGeometry relative="1" as="geometry" />
        </mxCell>
        <mxCell id="-7PfaRDhcwgCqptokeeb-7" value="Chat&lt;div&gt;Googooli&lt;/div&gt;" style="whiteSpace=wrap;html=1;aspect=fixed;" vertex="1" parent="1">
          <mxGeometry x="360" y="170" width="80" height="80" as="geometry" />
        </mxCell>
        <mxCell id="-7PfaRDhcwgCqptokeeb-19" style="edgeStyle=orthogonalEdgeStyle;rounded=0;orthogonalLoop=1;jettySize=auto;html=1;exitX=0.5;exitY=0.5;exitDx=0;exitDy=0;exitPerimeter=0;entryX=1;entryY=0.5;entryDx=0;entryDy=0;" edge="1" parent="1" source="-7PfaRDhcwgCqptokeeb-9" target="-7PfaRDhcwgCqptokeeb-7">
          <mxGeometry relative="1" as="geometry" />
        </mxCell>
        <mxCell id="-7PfaRDhcwgCqptokeeb-9" value="Actor" style="shape=umlActor;verticalLabelPosition=bottom;verticalAlign=top;html=1;outlineConnect=0;" vertex="1" parent="1">
          <mxGeometry x="470" y="180" width="30" height="60" as="geometry" />
        </mxCell>
        <mxCell id="-7PfaRDhcwgCqptokeeb-13" value="International Mobile&lt;div&gt;Sanctions&lt;/div&gt;&lt;div&gt;Payment&lt;/div&gt;" style="rounded=0;whiteSpace=wrap;html=1;" vertex="1" parent="1">
          <mxGeometry x="200" y="220" width="120" height="60" as="geometry" />
        </mxCell>
        <mxCell id="-7PfaRDhcwgCqptokeeb-14" value="GPT API" style="whiteSpace=wrap;html=1;aspect=fixed;" vertex="1" parent="1">
          <mxGeometry x="80" y="320" width="80" height="80" as="geometry" />
        </mxCell>
        <mxCell id="-7PfaRDhcwgCqptokeeb-22" style="edgeStyle=orthogonalEdgeStyle;rounded=0;orthogonalLoop=1;jettySize=auto;html=1;exitX=0.5;exitY=0;exitDx=0;exitDy=0;entryX=0.5;entryY=1;entryDx=0;entryDy=0;" edge="1" parent="1" source="-7PfaRDhcwgCqptokeeb-16" target="-7PfaRDhcwgCqptokeeb-20">
          <mxGeometry relative="1" as="geometry" />
        </mxCell>
        <mxCell id="-7PfaRDhcwgCqptokeeb-16" value="Chat&lt;div&gt;Googooli&lt;/div&gt;" style="whiteSpace=wrap;html=1;aspect=fixed;" vertex="1" parent="1">
          <mxGeometry x="360" y="440" width="80" height="80" as="geometry" />
        </mxCell>
        <mxCell id="-7PfaRDhcwgCqptokeeb-23" style="edgeStyle=orthogonalEdgeStyle;rounded=0;orthogonalLoop=1;jettySize=auto;html=1;exitX=0.5;exitY=0.5;exitDx=0;exitDy=0;exitPerimeter=0;entryX=1;entryY=0.5;entryDx=0;entryDy=0;" edge="1" parent="1" source="-7PfaRDhcwgCqptokeeb-17" target="-7PfaRDhcwgCqptokeeb-16">
          <mxGeometry relative="1" as="geometry" />
        </mxCell>
        <mxCell id="-7PfaRDhcwgCqptokeeb-17" value="Actor" style="shape=umlActor;verticalLabelPosition=bottom;verticalAlign=top;html=1;outlineConnect=0;" vertex="1" parent="1">
          <mxGeometry x="470" y="450" width="30" height="60" as="geometry" />
        </mxCell>
        <mxCell id="-7PfaRDhcwgCqptokeeb-21" style="edgeStyle=orthogonalEdgeStyle;rounded=0;orthogonalLoop=1;jettySize=auto;html=1;exitX=0;exitY=0.5;exitDx=0;exitDy=0;entryX=1;entryY=0.5;entryDx=0;entryDy=0;" edge="1" parent="1" source="-7PfaRDhcwgCqptokeeb-20" target="-7PfaRDhcwgCqptokeeb-14">
          <mxGeometry relative="1" as="geometry" />
        </mxCell>
        <mxCell id="-7PfaRDhcwgCqptokeeb-20" value="AvalAI API" style="whiteSpace=wrap;html=1;aspect=fixed;" vertex="1" parent="1">
          <mxGeometry x="360" y="320" width="80" height="80" as="geometry" />
        </mxCell>
        <mxCell id="-7PfaRDhcwgCqptokeeb-24" value="Model" style="shape=cylinder3;whiteSpace=wrap;html=1;boundedLbl=1;backgroundOutline=1;size=15;" vertex="1" parent="1">
          <mxGeometry x="30" y="40" width="60" height="80" as="geometry" />
        </mxCell>
        <mxCell id="-7PfaRDhcwgCqptokeeb-25" value="Model" style="shape=cylinder3;whiteSpace=wrap;html=1;boundedLbl=1;backgroundOutline=1;size=15;" vertex="1" parent="1">
          <mxGeometry x="30" y="170" width="60" height="80" as="geometry" />
        </mxCell>
        <mxCell id="-7PfaRDhcwgCqptokeeb-26" value="Model" style="shape=cylinder3;whiteSpace=wrap;html=1;boundedLbl=1;backgroundOutline=1;size=15;" vertex="1" parent="1">
          <mxGeometry x="30" y="320" width="60" height="80" as="geometry" />
        </mxCell>
      </root>
    </mxGraphModel>
  </diagram>
</mxfile>
